<?xml version="1.0" standalone="no"?>
<!DOCTYPE svg PUBLIC "-//W3C//DTD SVG 20010904//EN"
 "http://www.w3.org/TR/2001/REC-SVG-20010904/DTD/svg10.dtd">
<svg version="1.0" xmlns="http://www.w3.org/2000/svg"
 width="300.000000pt" height="300.000000pt" viewBox="0 0 300.000000 300.000000"
 preserveAspectRatio="xMidYMid meet">
<metadata>
Created by potrace 1.14, written by Peter Selinger 2001-2017
</metadata>
<g transform="translate(0.000000,300.000000) scale(0.100000,-0.100000)"
fill="#000000" stroke="none">
<path d="M1380 2633 c-14 -2 -61 -11 -105 -20 -47 -9 -117 -15 -170 -14 -261
7 -528 -105 -653 -273 -53 -73 -77 -125 -94 -207 -11 -55 -17 -64 -54 -90
-101 -69 -157 -167 -158 -274 -1 -86 21 -153 74 -229 27 -39 34 -53 21 -46
-63 33 -159 -9 -204 -89 -26 -46 -31 -65 -31 -125 l-1 -70 57 -32 c65 -37 145
-90 205 -139 28 -22 59 -36 89 -41 41 -6 47 -10 66 -50 l21 -43 -36 -40 c-22
-24 -37 -51 -37 -66 0 -36 53 -90 123 -125 35 -17 91 -60 131 -99 92 -88 137
-117 222 -142 279 -81 923 -85 1253 -8 170 40 167 38 310 195 72 80 131 151
131 158 0 7 23 57 50 112 48 93 101 244 115 325 5 26 15 41 38 54 104 61 190
175 232 306 41 131 30 213 -40 285 -69 72 -155 78 -247 18 -25 -16 -38 -20
-38 -12 0 7 -22 59 -49 114 -178 361 -516 606 -916 664 -67 9 -253 12 -305 3z
m-201 -102 c78 -24 136 -59 186 -111 38 -40 39 -43 21 -54 -11 -6 -33 -23 -50
-38 l-31 -27 52 19 c133 50 244 45 331 -14 132 -91 143 -256 23 -341 -41 -29
-47 -30 -151 -30 -60 0 -111 3 -115 6 -3 4 8 29 25 55 34 55 60 132 60 178 -1
29 -2 28 -19 -15 -40 -102 -136 -206 -240 -258 -119 -61 -256 -75 -332 -35
-29 15 -29 14 -17 -6 7 -12 28 -30 46 -42 18 -11 31 -22 29 -24 -9 -9 -153 18
-196 37 -25 11 -63 37 -84 57 -29 28 -36 32 -30 15 17 -47 74 -113 114 -133
l42 -22 -25 -25 c-60 -59 -205 -46 -311 29 -28 20 -30 20 -18 3 35 -47 68 -78
103 -96 21 -11 38 -23 38 -28 0 -17 -66 -96 -99 -118 -68 -46 -162 -39 -231
16 -109 87 -122 295 -25 408 55 65 200 121 315 123 81 2 5 22 -88 23 l-83 2 5
30 c14 70 79 180 150 251 152 151 417 224 605 165z m1168 -316 c28 -20 67 -87
94 -165 17 -52 22 -89 23 -181 1 -130 -3 -141 -66 -166 -48 -19 -96 -73 -102
-115 -2 -18 -9 -68 -15 -110 -17 -127 -70 -257 -110 -273 -9 -3 -29 9 -49 29
l-35 34 23 32 c36 50 60 143 60 229 0 71 -2 79 -28 104 -17 16 -48 31 -82 38
-30 7 -60 17 -66 23 -6 6 -17 51 -23 101 -11 79 -45 201 -82 291 -20 49 3 76
89 103 101 32 146 39 252 40 70 1 101 -3 117 -14z m553 -393 c37 -37 60 -91
60 -143 0 -37 -28 -126 -60 -189 -61 -121 -133 -184 -277 -241 -54 -22 -115
-51 -136 -66 -43 -30 -80 -94 -102 -179 -8 -32 -17 -59 -19 -62 -3 -2 -24 2
-48 10 -32 11 -44 20 -46 38 -7 42 17 96 75 177 83 116 104 161 114 249 13
120 91 265 196 365 63 61 97 78 157 79 43 0 53 -4 86 -38z m-1139 -127 c45
-73 120 -268 107 -280 -3 -3 -30 4 -61 14 -32 11 -94 25 -140 31 -124 17 -121
16 -138 59 -21 49 -57 74 -109 73 -54 -1 -96 -32 -111 -83 -9 -30 -18 -41 -38
-45 -278 -57 -441 -153 -557 -329 l-39 -58 -7 58 c-9 67 -38 179 -68 256 l-19
53 57 52 c32 28 66 68 77 88 14 25 26 36 43 36 30 0 88 25 126 54 17 12 60 28
95 35 84 16 188 54 265 96 57 32 64 33 111 24 54 -11 232 -4 268 11 18 7 28 2
55 -28 18 -20 55 -73 83 -117z m-290 -164 c18 -15 23 -28 23 -59 l-1 -39 91
-6 c110 -7 245 -44 341 -95 138 -73 259 -223 310 -385 43 -136 43 -133 -12
-151 -77 -25 -238 -54 -377 -67 -160 -15 -544 -7 -741 16 -140 16 -372 57
-432 76 -40 13 -42 31 -13 113 36 106 82 178 170 267 121 122 256 188 450 219
l75 12 -3 38 c-7 68 65 105 119 61z m-1175 -123 c76 -45 160 -113 180 -143 17
-26 45 -129 47 -176 2 -30 25 -61 39 -53 16 10 38 -18 38 -50 0 -28 -5 -34
-36 -45 -36 -13 -38 -13 -72 24 -40 42 -86 65 -131 65 -19 0 -45 13 -73 34
-62 50 -172 123 -213 143 -30 14 -35 22 -35 51 0 30 2 33 23 26 40 -12 113
-52 182 -99 42 -29 71 -43 77 -37 15 15 -79 89 -179 139 -51 26 -93 51 -93 57
0 6 8 21 18 34 l18 23 59 -27 c33 -14 98 -50 144 -81 52 -33 87 -51 93 -45 15
15 -77 87 -170 134 -76 38 -82 44 -65 56 27 20 86 9 149 -30z m2127 -559 c123
-102 -72 -196 -518 -251 -161 -19 -601 -16 -785 6 -293 35 -499 94 -568 162
-39 39 -40 63 -6 103 40 48 54 41 47 -22 l-5 -53 108 -26 c256 -63 468 -88
804 -95 203 -4 283 -2 391 11 126 16 325 59 393 85 29 11 29 12 23 76 l-6 63
43 -14 c23 -8 59 -28 79 -45z"/>
<path d="M2286 2151 c-3 -5 3 -47 14 -93 10 -45 23 -123 27 -173 7 -81 10 -90
28 -90 18 0 20 8 23 75 3 75 -19 213 -41 260 -13 26 -41 38 -51 21z"/>
<path d="M2185 2140 c-3 -6 0 -32 9 -58 18 -55 32 -138 41 -240 7 -67 9 -73
29 -70 20 3 21 8 19 98 -2 59 -11 129 -25 185 -19 76 -26 90 -45 93 -11 2 -24
-2 -28 -8z"/>
<path d="M2080 2124 c0 -9 9 -50 20 -93 10 -42 24 -119 30 -170 6 -52 13 -98
16 -102 3 -5 14 -4 26 2 19 10 20 17 14 92 -7 86 -39 234 -56 268 -13 23 -50
26 -50 3z"/>
<path d="M1976 2102 c-3 -5 6 -43 19 -84 13 -42 30 -120 37 -174 12 -88 15
-99 33 -99 26 0 31 43 15 147 -16 114 -52 212 -77 216 -12 2 -24 -1 -27 -6z"/>
</g>
</svg>
