<?xml version="1.0" standalone="no"?>
<!DOCTYPE svg PUBLIC "-//W3C//DTD SVG 20010904//EN"
 "http://www.w3.org/TR/2001/REC-SVG-20010904/DTD/svg10.dtd">
<svg version="1.0" xmlns="http://www.w3.org/2000/svg"
 width="500.000000pt" height="500.000000pt" viewBox="0 0 500.000000 500.000000"
 preserveAspectRatio="xMidYMid meet">
<metadata>
Created by potrace 1.14, written by Peter Selinger 2001-2017
</metadata>
<g transform="translate(0.000000,500.000000) scale(0.100000,-0.100000)"
fill="#000000" stroke="none">
<path d="M2210 3544 c0 -4 33 -50 73 -103 41 -53 77 -102 82 -110 5 -8 -38
-221 -106 -532 l-113 -519 -138 0 c-110 0 -138 3 -138 14 0 7 11 63 25 124 14
61 25 117 25 125 0 13 -318 217 -338 217 -8 0 -153 -663 -153 -695 1 -29 27
-62 61 -80 24 -13 95 -15 440 -15 227 0 410 3 408 8 -2 4 -12 25 -22 46 l-18
39 157 721 c86 397 159 731 162 744 l5 22 -206 0 c-113 0 -206 -3 -206 -6z"/>
<path d="M2680 3533 c0 -5 -72 -336 -159 -737 -148 -676 -159 -732 -145 -757
30 -60 25 -59 422 -59 231 0 370 -4 383 -10 18 -10 19 -7 19 39 l0 50 86 -40
c109 -51 128 -47 29 6 l-75 40 0 53 c0 28 3 52 8 51 4 0 45 -17 92 -38 l85
-38 26 116 c14 64 29 128 32 143 6 21 3 30 -11 37 -15 8 -31 2 -74 -27 -31
-20 -97 -57 -146 -81 l-91 -44 -40 26 c-23 15 -41 22 -41 16 0 -21 -32 14 -50
54 -19 42 -30 32 -30 -28 l0 -33 -106 -1 -106 -2 6 26 c13 51 206 939 206 947
0 4 65 8 145 8 80 0 145 -3 145 -7 0 -5 -8 -46 -17 -92 -9 -49 -13 -86 -7 -88
5 -2 79 -48 164 -102 85 -55 158 -96 161 -93 8 8 129 562 129 588 0 9 -15 31
-34 50 l-34 34 -486 0 c-267 0 -486 -3 -486 -7z"/>
<path d="M3542 2727 c-1 -10 -27 -43 -57 -72 -49 -48 -55 -59 -55 -95 l0 -41
35 27 c54 41 87 103 82 156 -2 24 -4 35 -5 25z"/>
<path d="M3556 2609 c-11 -22 -37 -56 -58 -74 -33 -31 -38 -40 -38 -80 l0 -46
35 28 c55 43 87 97 93 152 6 62 -8 70 -32 20z"/>
<path d="M3136 2523 c-8 -37 -14 -68 -13 -69 3 -3 129 55 136 62 3 3 -1 10 -9
14 -8 5 -34 21 -57 35 l-41 25 -16 -67z"/>
<path d="M3215 2389 c-71 -37 -124 -68 -116 -69 17 0 259 119 267 131 11 19
-26 4 -151 -62z"/>
<path d="M3105 1850 c-8 -12 20 -24 35 -15 5 3 10 10 10 16 0 12 -37 12 -45
-1z"/>
<path d="M1767 1797 c-14 -22 -15 -22 -36 -3 -20 19 -22 19 -41 1 -20 -18 -20
-18 7 -47 l27 -28 -19 -37 c-11 -21 -21 -41 -23 -45 -2 -5 9 -8 25 -8 26 0 34
9 71 75 52 92 52 95 25 105 -17 7 -25 4 -36 -13z"/>
<path d="M1568 1794 c-35 -19 -48 -43 -48 -93 0 -30 6 -44 22 -55 28 -20 78
-21 103 -2 17 12 17 16 5 30 -7 10 -23 16 -34 15 -38 -3 -46 1 -46 20 0 24 25
45 45 37 22 -8 45 42 24 55 -20 12 -40 11 -71 -7z"/>
<path d="M1853 1803 c-9 -3 -13 -31 -13 -89 l0 -84 28 0 c87 0 145 48 108 89
-11 12 -14 21 -7 26 16 9 13 31 -5 49 -15 15 -83 21 -111 9z m65 -45 c-6 -18
-28 -21 -28 -4 0 9 7 16 16 16 9 0 14 -5 12 -12z m7 -58 c3 -6 -1 -13 -10 -16
-19 -8 -30 0 -20 15 8 14 22 14 30 1z"/>
<path d="M2043 1803 l-43 -4 0 -85 0 -84 60 0 c57 0 60 1 60 25 0 22 -4 25
-37 26 -39 1 -38 3 10 13 18 4 27 13 27 26 0 16 -7 20 -37 20 -28 0 -34 3 -23
10 8 5 25 10 38 10 17 0 22 6 22 25 0 18 -5 24 -17 23 -10 -1 -37 -3 -60 -5z"/>
<path d="M2880 1763 c0 -56 -11 -78 -34 -70 -12 5 -16 20 -16 57 0 42 -3 50
-19 50 -33 0 -42 -64 -17 -125 13 -30 20 -35 50 -35 51 0 76 36 76 111 0 52
-2 59 -20 59 -17 0 -20 -7 -20 -47z"/>
<path d="M3218 1803 c-43 -4 -48 -7 -48 -28 0 -20 5 -24 23 -22 20 2 22 -3 25
-55 3 -50 6 -58 22 -58 18 0 20 7 20 59 0 54 2 60 23 63 14 2 23 11 25 26 3
18 -1 22 -20 20 -13 -1 -44 -3 -70 -5z"/>
<path d="M3347 1792 c-16 -17 -15 -20 12 -46 l30 -28 -24 -38 c-24 -39 -24
-50 4 -50 17 0 113 159 105 172 -7 10 -44 10 -44 1 0 -5 -5 -15 -10 -23 -8
-12 -13 -11 -33 8 -23 22 -24 22 -40 4z"/>
<path d="M2140 1711 l0 -88 25 5 c14 2 25 11 25 18 0 20 14 17 35 -6 13 -15
22 -17 36 -9 15 8 17 13 8 33 -8 17 -8 29 0 44 30 56 -1 92 -77 92 l-52 0 0
-89z m88 20 c-5 -24 -38 -27 -38 -3 0 10 3 21 6 25 11 11 35 -5 32 -22z"/>
<path d="M2356 1778 c-31 -43 -16 -73 39 -80 41 -4 38 -22 -5 -26 -68 -6 -62
-42 8 -42 36 0 72 29 72 60 0 19 -38 52 -56 49 -21 -4 -35 2 -29 11 3 6 22 10
41 10 27 0 34 4 34 20 0 17 -7 20 -44 20 -35 0 -48 -5 -60 -22z"/>
<path d="M2503 1793 c-9 -3 -13 -30 -13 -84 l0 -79 34 0 c49 0 87 16 80 34 -4
11 -15 13 -41 9 -28 -5 -35 -3 -31 8 2 8 19 15 36 17 24 2 32 8 32 23 0 17 -5
19 -35 13 -28 -5 -35 -3 -35 10 0 12 9 16 35 16 28 0 35 4 35 20 0 17 -6 20
-42 19 -24 0 -49 -3 -55 -6z"/>
<path d="M2656 1773 c-23 -22 -26 -34 -24 -72 3 -39 7 -48 31 -59 28 -14 58
-11 86 7 24 16 -5 41 -39 35 -32 -7 -44 7 -36 42 5 18 13 24 35 24 26 0 41 15
41 41 0 5 -15 9 -34 9 -23 0 -42 -8 -60 -27z"/>
<path d="M2953 1793 c-9 -3 -13 -30 -13 -84 0 -78 0 -79 25 -79 18 0 25 5 25
20 0 27 14 25 38 -5 17 -21 21 -23 32 -10 9 11 10 18 1 29 -8 10 -8 20 4 42
20 38 19 50 -5 74 -19 19 -76 26 -107 13z m81 -50 c5 -11 1 -22 -10 -30 -27
-20 -34 -16 -34 17 0 23 5 30 19 30 10 0 22 -8 25 -17z"/>
<path d="M3100 1720 c0 -79 0 -80 25 -80 25 0 25 1 25 80 0 79 0 80 -25 80
-25 0 -25 -1 -25 -80z"/>
</g>
</svg>
